<?xml version="1.0" standalone="no"?><!DOCTYPE svg PUBLIC "-//W3C//DTD SVG 1.1//EN" "http://www.w3.org/Graphics/SVG/1.1/DTD/svg11.dtd"><svg t="1720487809487" class="icon" viewBox="0 0 1185 1024" version="1.1" xmlns="http://www.w3.org/2000/svg" p-id="4261" xmlns:xlink="http://www.w3.org/1999/xlink" width="231.4453125" height="200"><path d="M91.974849 891.98141h1011.352677a37.713924 37.713924 0 0 0 5.599505-75.004244c-8.419114-262.660469-215.190434-476.090302-475.097482-495.086258v-82.735003a122.553705 122.553705 0 1 0-75.454322 0v82.735003C298.256377 340.91334 91.352681 554.660875 83.25127 817.586096a37.713924 37.713924 0 0 0 8.723579 74.395314z m456.961968-769.42229a47.139095 47.139095 0 1 1 47.139096 47.139095 47.205283 47.205283 0 0 1-47.139096-47.139095z m-293.1599 432.604783a458.788758 458.788758 0 0 1 121.057857-113.102058c12.085929-7.757234 24.674887-15.024677 37.396221-21.603764a24.794026 24.794026 0 0 1 22.742198 44.054734c-11.357861 5.851019-22.503921 12.337444-33.358754 19.260709a409.637547 409.637547 0 0 0-108.032057 100.936704 24.780788 24.780788 0 0 1-39.805465-29.546325z m-68.941423 101.320595c4.659635-11.503475 9.848775-22.953999 15.448279-34.060346a24.780788 24.780788 0 0 1 44.266537 22.318594c-4.977338 9.888488-9.610498 20.094678-13.767105 30.34058a24.780788 24.780788 0 0 1-32.27327 13.687679 24.846976 24.846976 0 0 1-13.674441-32.286507zM1148.216229 948.545677H37.727162a37.713924 37.713924 0 1 0 0 75.454323h1110.489067a37.713924 37.713924 0 1 0 0-75.454323z" p-id="4262"></path></svg>